<?xml version="1.0" encoding="UTF-8"?>
<svg xmlns="http://www.w3.org/2000/svg" width="100" height="51" viewBox="0 0 100 51" fill="none">
  <g clip-path="url(#clip0_1933_23754)">
    <path d="M52.5967 0.320312H53.7227L55.5764 11.6883L57.69 0.527701H58.7814L60.9469 11.7057L62.662 0.320481H63.7707L61.5013 14.3146H60.4791L58.2443 2.77385L56.0441 14.3146H54.97L52.5967 0.320312Z" fill="white"></path>
    <path d="M65.9016 10.1852V4.38015C65.9016 1.84048 66.7851 0.181885 69.5224 0.181885C72.2597 0.181885 73.1085 1.85771 73.1085 4.38015V10.2024C73.1085 12.7248 72.277 14.487 69.5224 14.487C66.7678 14.487 65.9016 12.7247 65.9016 10.185V10.1852ZM71.7745 10.4789V4.13848C71.7745 2.35896 71.3588 1.23605 69.5224 1.23605C67.686 1.23605 67.2356 2.35896 67.2356 4.13848V10.479C67.2356 12.2413 67.6513 13.4333 69.5224 13.4333C71.3935 13.4333 71.7745 12.2411 71.7745 10.479V10.4789Z" fill="white"></path>
    <path d="M82.8098 14.3144L80.9165 8.01066C82.1507 7.49625 82.6019 6.35054 82.6019 4.7546V3.87911C82.6019 1.66776 81.7357 0.320068 79.1198 0.320068H75.9494V14.3142H77.2661V8.31347H79.1198C79.3314 8.31347 79.5316 8.30452 79.7208 8.28713L81.5277 14.3142H82.8096L82.8098 14.3144ZM79.0852 7.32888H77.2663V1.30516H79.0852C80.8696 1.30516 81.3201 2.15177 81.3201 3.87945V4.75494C81.3201 6.48261 80.8696 7.32922 79.0852 7.32922V7.32888Z" fill="white"></path>
    <path d="M85.4777 0.320312H86.7944V13.3297H90.7789V14.3145H85.4777V0.320312Z" fill="white"></path>
    <path d="M92.7537 0.320312H95.8027C98.7131 0.320312 99.614 1.96152 99.614 4.43211V9.99512C99.614 12.6039 98.7306 14.3143 95.924 14.3143H92.7537V0.320312ZM95.8373 13.3297C98.0547 13.3297 98.2627 11.8267 98.2627 9.78806V4.57059C98.2627 2.48016 97.8815 1.33986 95.7853 1.33986H94.0702V13.3299H95.8373V13.3297Z" fill="white"></path>
    <path d="M53.1036 18.3007H60.1432V19.2855H54.4203V24.7237H59.5196V25.6912H54.4203V32.2103H53.1036V18.3005V18.3007Z" fill="white"></path>
    <path d="M64.3626 18.3008H65.6792V32.2105H64.3626V18.3008Z" fill="white"></path>
    <path d="M83.5338 19.3202H80.0498V18.3008H88.265V19.3202H84.8505V32.2105H83.5338V19.3202Z" fill="white"></path>
    <path d="M94.6729 27.6474L90.5412 18.3008H91.907L95.3139 26.0753L98.6107 18.3008H99.9998L95.9547 27.6474V32.2105H94.6727V27.6474H94.6729Z" fill="white"></path>
    <path d="M70.0018 18.3007H77.0414V19.2855H71.3185V24.7237H76.4179V25.6912H71.3185V32.2103H70.0018V18.3005V18.3007Z" fill="white"></path>
    <path d="M52.9556 46.0439V40.5844C52.9556 37.9066 53.7005 36.179 56.5069 36.179C59.0189 36.179 59.9025 37.6302 59.9025 40.2045V40.6881H58.6551V40.2045C58.6551 38.2349 58.2394 37.2328 56.5242 37.2328C54.5838 37.2328 54.2894 38.5803 54.2894 40.4463V46.1995C54.2894 48.2381 54.7225 49.4302 56.5415 49.4302C58.3604 49.4302 58.7416 48.2381 58.7416 46.1648V44.5235H56.6627V43.5387H59.9543V50.3111H59.1054L58.9418 49.2015C58.5598 50.0144 57.8582 50.5011 56.4202 50.5011C53.7524 50.5011 52.9554 48.7216 52.9554 46.0438L52.9556 46.0439Z" fill="white"></path>
    <path d="M72.5144 46.182V40.377C72.5144 37.8373 73.3979 36.1787 76.1352 36.1787C78.8725 36.1787 79.7213 37.8545 79.7213 40.377V46.1992C79.7213 48.7217 78.8898 50.4838 76.1352 50.4838C73.3806 50.4838 72.5144 48.7215 72.5144 46.1818V46.182ZM78.3873 46.4757V40.1351C78.3873 38.3556 77.9716 37.2327 76.1352 37.2327C74.2988 37.2327 73.8483 38.3556 73.8483 40.1351V46.4757C73.8483 48.238 74.2641 49.4299 76.1352 49.4299C78.0063 49.4299 78.3873 48.2378 78.3873 46.4757Z" fill="white"></path>
    <path d="M82.5969 46.493V36.3171H83.8789V46.5276C83.8789 48.1688 84.2946 49.4301 86.183 49.4301C88.0714 49.4301 88.4871 48.1688 88.4871 46.5276V36.3171H89.7518V46.493C89.7518 48.8255 88.9549 50.4839 86.183 50.4839C83.4111 50.4839 82.5969 48.8253 82.5969 46.493Z" fill="white"></path>
    <path d="M68.0872 44.1071C69.2987 43.5868 69.7425 42.4467 69.7425 40.8637V39.8759C69.7425 37.6646 68.8763 36.3169 66.2605 36.3169H63.0901V50.3109H64.4068V44.4224H66.2605C66.4845 44.4224 66.6953 44.4123 66.8941 44.3929L68.6684 50.3109H69.9503L68.087 44.1068L68.0872 44.1071ZM66.2259 43.438H64.407V37.3018H66.2259C68.0103 37.3018 68.4608 38.1484 68.4608 39.8761V40.8639C68.4608 42.5916 68.0103 43.4382 66.2259 43.4382V43.438Z" fill="white"></path>
    <path d="M96.4686 36.3171H92.9045V50.3111H94.2212V44.4227H96.4686C98.9805 44.4227 99.7949 42.9196 99.7949 40.7083V40.0316C99.7949 37.8202 98.9807 36.3171 96.4686 36.3171ZM98.4955 40.7084C98.4955 42.8507 97.9758 43.4381 96.1221 43.4381H94.2212V37.3019H96.1221C97.9758 37.3019 98.4955 37.8893 98.4955 40.0316V40.7083V40.7084Z" fill="white"></path>
    <path d="M16.6213 2.177H0V3.04776H15.8886L16.6213 2.177Z" fill="white"></path>
    <path d="M14.7895 4.35425H0V5.22501H14.0568L14.7895 4.35425Z" fill="white"></path>
    <path d="M18.4532 0H0V0.870761H17.7204L18.4532 0Z" fill="white"></path>
    <path d="M9.82361 14.8042C8.99517 14.8042 8.19077 14.9067 7.42228 15.0994V7.40225H12.2249L12.9577 6.53149H0V33.5271L0.873149 32.4893V7.40209H2.18304V30.9324L3.05619 29.8946V7.40209H4.36609V28.3378L5.23924 27.3001V7.40209H6.54913V25.7433L7.42228 24.7055V24.6006L7.43684 24.601C7.43684 23.2784 8.51202 22.2062 9.83817 22.2062C11.1643 22.2062 12.2395 23.2784 12.2395 24.601V41.1466C12.2395 42.4691 11.1643 43.5414 9.83817 43.5414C8.51202 43.5414 7.43684 42.4691 7.43684 41.1466H7.42228V33.5269L6.54913 34.5647V41.3643H6.55658C6.66953 43.0665 8.08933 44.4121 9.82479 44.4121C11.6331 44.4121 13.0993 42.9509 13.1005 41.1476L13.1111 24.5854C13.1123 22.7731 11.6341 21.3064 9.81683 21.3167H9.80617C8.86375 21.3221 8.01651 21.724 7.42245 22.3633V20.7058C8.12083 20.2767 8.94335 20.0291 9.82378 20.0291C12.3557 20.0291 14.4082 22.076 14.4082 24.601V41.1466C14.4082 43.6716 12.3557 45.7184 9.82378 45.7184C7.29188 45.7184 5.2394 43.6716 5.2394 41.1466V36.1213L4.36625 37.1591V41.3641H4.371C4.48564 44.2691 6.88291 46.589 9.82395 46.589C12.8381 46.589 15.2815 44.1522 15.2815 41.1464V24.6008C15.2815 21.5948 12.838 19.1582 9.82395 19.1582C8.96214 19.1582 8.14725 19.3577 7.42262 19.7123V18.2893C8.16893 18.0068 8.97823 17.8519 9.82395 17.8519C13.5614 17.8519 16.5914 20.8735 16.5914 24.6008V41.1464C16.5914 44.8737 13.5614 47.8953 9.82395 47.8953C6.08647 47.8953 3.05653 44.8737 3.05653 41.1464V38.7157L2.18338 39.7535V41.3641H2.1866C2.30209 45.4717 5.67733 48.7661 9.82412 48.7661C14.0439 48.7661 17.4647 45.3547 17.4647 41.1464V24.6008C17.4647 20.3926 14.0439 16.9811 9.82412 16.9811C8.98517 16.9811 8.1779 17.1164 7.42279 17.3655V16.0001C8.18705 15.7883 8.99229 15.6748 9.82412 15.6748C14.7673 15.6748 18.7746 19.6711 18.7746 24.6008V41.1464C18.7746 46.0761 14.7673 50.0724 9.82412 50.0724C4.93509 50.0724 0.961887 46.1633 0.875351 41.3084L0.0648596 42.2715C0.624549 47.1523 4.78014 50.9432 9.82412 50.9432C15.2496 50.9432 19.6477 46.5569 19.6477 41.1464V24.6008C19.6477 19.1901 15.2495 14.8041 9.82412 14.8041L9.82361 14.8042Z" fill="white"></path>
    <path d="M34.4919 0C28.4637 0 23.5767 4.87346 23.5767 10.8854V40.058C23.5767 46.0698 28.4635 50.9434 34.4919 50.9434C40.5202 50.9434 45.4072 46.0699 45.4072 40.058V10.8854C45.4072 4.87346 40.5203 0 34.4919 0ZM44.5338 40.058C44.5338 45.589 40.0379 50.0725 34.4919 50.0725C28.9458 50.0725 24.45 45.5888 24.45 40.058V10.8854C24.45 5.35444 28.946 0.87093 34.4919 0.87093C40.038 0.87093 44.5338 5.35461 44.5338 10.8854V40.058Z" fill="white"></path>
    <path d="M34.4919 2.177C29.6693 2.177 25.7598 6.07584 25.7598 10.8853V40.058C25.7598 44.8674 29.6693 48.7663 34.4919 48.7663C39.3146 48.7663 43.2241 44.8674 43.2241 40.058V10.8853C43.2241 6.07584 39.3146 2.177 34.4919 2.177ZM42.3508 40.058C42.3508 44.3864 38.8323 47.8953 34.4919 47.8953C30.1516 47.8953 26.6331 44.3864 26.6331 40.058V10.8853C26.6331 6.55682 30.1516 3.04793 34.4919 3.04793C38.8323 3.04793 42.3508 6.55682 42.3508 10.8853V40.058Z" fill="white"></path>
    <path d="M34.4919 4.35425C30.875 4.35425 27.9428 7.27829 27.9428 10.8855V40.0581C27.9428 43.6651 30.8749 46.5894 34.4919 46.5894C38.1088 46.5894 41.0411 43.6653 41.0411 40.0581V10.8855C41.0411 7.27846 38.109 4.35425 34.4919 4.35425ZM40.1677 40.0581C40.1677 43.1843 37.6265 45.7186 34.4919 45.7186C31.3572 45.7186 28.816 43.1843 28.816 40.0581V10.8855C28.816 7.75927 31.3572 5.22518 34.4919 5.22518C37.6267 5.22518 40.1677 7.75944 40.1677 10.8855V40.0581Z" fill="white"></path>
    <path d="M34.4857 6.51274H34.4742C32.0696 6.52304 30.1259 8.46975 30.1259 10.8677V40.0573C30.1259 42.4625 32.081 44.4123 34.4928 44.4123C36.9039 44.4123 38.8587 42.4635 38.8597 40.059L38.8712 10.8694C38.8723 8.45624 36.9055 6.50243 34.4857 6.51274ZM31.0136 23.9153V10.8855C31.0136 8.96171 32.5773 7.40207 34.5065 7.40207C36.4355 7.40207 37.9994 8.96154 37.9994 10.8855V40.0581C37.9994 41.9819 36.4357 43.5415 34.5065 43.5415C32.5775 43.5415 31.0136 41.9821 31.0136 40.0581V23.9153Z" fill="white"></path>
    <path d="M31.0136 25.27L37.9993 16.9676V15.6128L31.0136 23.9153V25.27ZM31.0136 28.657L37.9993 20.3545V18.9997L31.0136 27.3022V28.657ZM31.0136 32.0439L37.9993 23.7415V22.3867L31.0136 30.6892V32.0439ZM31.0136 35.4309L37.9993 27.1284V25.7736L31.0136 34.0761V35.4309Z" fill="white"></path>
  </g>
  <defs>
    <clipPath id="clip0_1933_23754">
      <rect width="100" height="50.9434" fill="white"></rect>
    </clipPath>
  </defs>
</svg>
